<svg width="22" height="22" viewBox="0 0 22 22" fill="none" xmlns="http://www.w3.org/2000/svg">
<path fill-rule="evenodd" clip-rule="evenodd" d="M16.4622 15.5317L21.8097 20.878C22.0634 21.1317 22.0634 21.5512 21.8097 21.8049C21.6829 21.9366 21.5121 22 21.3462 22C21.1803 22 21.0095 21.9317 20.8827 21.8049L15.5352 16.4585C13.886 17.8927 11.7343 18.761 9.38257 18.761C4.21069 18.761 0 14.5512 0 9.38049C0 4.20976 4.20581 0 9.38257 0C14.5544 0 18.7651 4.20488 18.7651 9.38049C18.7651 11.7317 17.8967 13.8829 16.4622 15.5317ZM9.37769 1.31707C4.9328 1.31707 1.31249 4.93171 1.31249 9.38049C1.31249 13.8293 4.9328 17.4488 9.37769 17.4488C13.8275 17.4488 17.4429 13.8244 17.4429 9.38049C17.4429 4.93659 13.8275 1.31707 9.37769 1.31707Z" fill="#241D50"/>
</svg>
